<svg xmlns="http://www.w3.org/2000/svg" width="256" height="256" viewBox="0 0 256 256">
<g stroke-linecap="round" stroke-linejoin="round">
<path d="M128 238 Q94.0 144.0 60 70" stroke="#5a7d4d" stroke-width="8" fill="none"/><path d="M128 238 Q105.0 153.0 82 88" stroke="#5a7d4d" stroke-width="8" fill="none"/><path d="M128 238 Q116.0 162.0 104 106" stroke="#5a7d4d" stroke-width="8" fill="none"/><path d="M128 238 Q127.0 144.0 126 70" stroke="#5a7d4d" stroke-width="8" fill="none"/><path d="M128 238 Q138.0 153.0 148 88" stroke="#5a7d4d" stroke-width="8" fill="none"/><path d="M128 238 Q149.0 162.0 170 106" stroke="#5a7d4d" stroke-width="8" fill="none"/><path d="M128 238 Q160.0 144.0 192 70" stroke="#5a7d4d" stroke-width="8" fill="none"/><circle cx="55" cy="88" r="32" fill="#7daa71" opacity=".85"/><circle cx="80" cy="108" r="32" fill="#7daa71" opacity=".85"/><circle cx="105" cy="88" r="32" fill="#7daa71" opacity=".85"/><circle cx="130" cy="108" r="32" fill="#7daa71" opacity=".85"/><circle cx="155" cy="88" r="32" fill="#7daa71" opacity=".85"/><circle cx="180" cy="108" r="32" fill="#7daa71" opacity=".85"/><circle cx="205" cy="88" r="32" fill="#7daa71" opacity=".85"/>
</g>
</svg>