<svg xmlns="http://www.w3.org/2000/svg" width="256" height="256" viewBox="0 0 256 256">
<g stroke-linecap="round" stroke-linejoin="round">
<g transform="translate(128 128)"><ellipse cx="0" cy="-57" rx="18" ry="48" transform="rotate(0)" fill="#f5f2eb" stroke="#31543b" stroke-width="2"/><ellipse cx="0" cy="-57" rx="18" ry="48" transform="rotate(30)" fill="#f5f2eb" stroke="#31543b" stroke-width="2"/><ellipse cx="0" cy="-57" rx="18" ry="48" transform="rotate(60)" fill="#f5f2eb" stroke="#31543b" stroke-width="2"/><ellipse cx="0" cy="-57" rx="18" ry="48" transform="rotate(90)" fill="#f5f2eb" stroke="#31543b" stroke-width="2"/><ellipse cx="0" cy="-57" rx="18" ry="48" transform="rotate(120)" fill="#f5f2eb" stroke="#31543b" stroke-width="2"/><ellipse cx="0" cy="-57" rx="18" ry="48" transform="rotate(150)" fill="#f5f2eb" stroke="#31543b" stroke-width="2"/><ellipse cx="0" cy="-57" rx="18" ry="48" transform="rotate(180)" fill="#f5f2eb" stroke="#31543b" stroke-width="2"/><ellipse cx="0" cy="-57" rx="18" ry="48" transform="rotate(210)" fill="#f5f2eb" stroke="#31543b" stroke-width="2"/><ellipse cx="0" cy="-57" rx="18" ry="48" transform="rotate(240)" fill="#f5f2eb" stroke="#31543b" stroke-width="2"/><ellipse cx="0" cy="-57" rx="18" ry="48" transform="rotate(270)" fill="#f5f2eb" stroke="#31543b" stroke-width="2"/><ellipse cx="0" cy="-57" rx="18" ry="48" transform="rotate(300)" fill="#f5f2eb" stroke="#31543b" stroke-width="2"/><ellipse cx="0" cy="-57" rx="18" ry="48" transform="rotate(330)" fill="#f5f2eb" stroke="#31543b" stroke-width="2"/><circle cx="0" cy="0" r="34" fill="#d7b45a" stroke="#31543b" stroke-width="3"/></g>
</g>
</svg>